<mxfile host="app.diagrams.net" agent="Mozilla/5.0 (Windows NT 10.0; Win64; x64) AppleWebKit/537.36 (KHTML, like Gecko) Chrome/136.0.0.0 Safari/537.36 Edg/136.0.0.0" version="27.0.6">
  <diagram name="Page-1" id="S058wBrmzOtbzDF3kW07">
    <mxGraphModel dx="717" dy="461" grid="1" gridSize="10" guides="1" tooltips="1" connect="1" arrows="1" fold="1" page="1" pageScale="1" pageWidth="850" pageHeight="1100" math="0" shadow="0">
      <root>
        <mxCell id="0" />
        <mxCell id="1" parent="0" />
        <mxCell id="mCZfHpHMkRfQ4yyxiXEU-1" value="Portfolio" style="swimlane;fontStyle=1;align=center;verticalAlign=top;childLayout=stackLayout;horizontal=1;startSize=26;horizontalStack=0;resizeParent=1;resizeParentMax=0;resizeLast=0;collapsible=1;marginBottom=0;whiteSpace=wrap;html=1;" vertex="1" parent="1">
          <mxGeometry x="120" y="30" width="230" height="160" as="geometry" />
        </mxCell>
        <mxCell id="mCZfHpHMkRfQ4yyxiXEU-2" value="- name: String&lt;div&gt;- owner: String&lt;/div&gt;&lt;div&gt;- assets: ArrayList&amp;lt;Asset&amp;gt;&lt;/div&gt;" style="text;strokeColor=none;fillColor=none;align=left;verticalAlign=top;spacingLeft=4;spacingRight=4;overflow=hidden;rotatable=0;points=[[0,0.5],[1,0.5]];portConstraint=eastwest;whiteSpace=wrap;html=1;" vertex="1" parent="mCZfHpHMkRfQ4yyxiXEU-1">
          <mxGeometry y="26" width="230" height="64" as="geometry" />
        </mxCell>
        <mxCell id="mCZfHpHMkRfQ4yyxiXEU-3" value="" style="line;strokeWidth=1;fillColor=none;align=left;verticalAlign=middle;spacingTop=-1;spacingLeft=3;spacingRight=3;rotatable=0;labelPosition=right;points=[];portConstraint=eastwest;strokeColor=inherit;" vertex="1" parent="mCZfHpHMkRfQ4yyxiXEU-1">
          <mxGeometry y="90" width="230" height="8" as="geometry" />
        </mxCell>
        <mxCell id="mCZfHpHMkRfQ4yyxiXEU-4" value="+ Portfolio (name: String, owner: String)&lt;div&gt;+ add (asset: Asset)&lt;/div&gt;&lt;div&gt;+ getValue(): double&lt;/div&gt;" style="text;strokeColor=none;fillColor=none;align=left;verticalAlign=top;spacingLeft=4;spacingRight=4;overflow=hidden;rotatable=0;points=[[0,0.5],[1,0.5]];portConstraint=eastwest;whiteSpace=wrap;html=1;" vertex="1" parent="mCZfHpHMkRfQ4yyxiXEU-1">
          <mxGeometry y="98" width="230" height="62" as="geometry" />
        </mxCell>
        <mxCell id="mCZfHpHMkRfQ4yyxiXEU-5" value="&amp;lt;&amp;lt;abstract&amp;gt;&amp;gt;&lt;div&gt;FixedAsset&lt;/div&gt;" style="swimlane;fontStyle=1;align=center;verticalAlign=top;childLayout=stackLayout;horizontal=1;startSize=40;horizontalStack=0;resizeParent=1;resizeParentMax=0;resizeLast=0;collapsible=1;marginBottom=0;whiteSpace=wrap;html=1;" vertex="1" parent="1">
          <mxGeometry x="490" y="340" width="220" height="160" as="geometry" />
        </mxCell>
        <mxCell id="mCZfHpHMkRfQ4yyxiXEU-6" value="- name: String&lt;div&gt;- marketValue: double&lt;/div&gt;" style="text;strokeColor=none;fillColor=none;align=left;verticalAlign=top;spacingLeft=4;spacingRight=4;overflow=hidden;rotatable=0;points=[[0,0.5],[1,0.5]];portConstraint=eastwest;whiteSpace=wrap;html=1;" vertex="1" parent="mCZfHpHMkRfQ4yyxiXEU-5">
          <mxGeometry y="40" width="220" height="40" as="geometry" />
        </mxCell>
        <mxCell id="mCZfHpHMkRfQ4yyxiXEU-7" value="" style="line;strokeWidth=1;fillColor=none;align=left;verticalAlign=middle;spacingTop=-1;spacingLeft=3;spacingRight=3;rotatable=0;labelPosition=right;points=[];portConstraint=eastwest;strokeColor=inherit;" vertex="1" parent="mCZfHpHMkRfQ4yyxiXEU-5">
          <mxGeometry y="80" width="220" height="8" as="geometry" />
        </mxCell>
        <mxCell id="mCZfHpHMkRfQ4yyxiXEU-8" value="+ Asset(name: String, value, double)&lt;div&gt;&lt;br&gt;&lt;/div&gt;&lt;div&gt;+ getValue(): double&lt;/div&gt;" style="text;strokeColor=none;fillColor=none;align=left;verticalAlign=top;spacingLeft=4;spacingRight=4;overflow=hidden;rotatable=0;points=[[0,0.5],[1,0.5]];portConstraint=eastwest;whiteSpace=wrap;html=1;" vertex="1" parent="mCZfHpHMkRfQ4yyxiXEU-5">
          <mxGeometry y="88" width="220" height="72" as="geometry" />
        </mxCell>
        <mxCell id="mCZfHpHMkRfQ4yyxiXEU-12" value="Jewelry" style="swimlane;fontStyle=1;align=center;verticalAlign=top;childLayout=stackLayout;horizontal=1;startSize=26;horizontalStack=0;resizeParent=1;resizeParentMax=0;resizeLast=0;collapsible=1;marginBottom=0;whiteSpace=wrap;html=1;" vertex="1" parent="1">
          <mxGeometry x="170" y="590" width="160" height="150" as="geometry" />
        </mxCell>
        <mxCell id="mCZfHpHMkRfQ4yyxiXEU-13" value="- karat: double" style="text;strokeColor=none;fillColor=none;align=left;verticalAlign=top;spacingLeft=4;spacingRight=4;overflow=hidden;rotatable=0;points=[[0,0.5],[1,0.5]];portConstraint=eastwest;whiteSpace=wrap;html=1;" vertex="1" parent="mCZfHpHMkRfQ4yyxiXEU-12">
          <mxGeometry y="26" width="160" height="26" as="geometry" />
        </mxCell>
        <mxCell id="mCZfHpHMkRfQ4yyxiXEU-14" value="" style="line;strokeWidth=1;fillColor=none;align=left;verticalAlign=middle;spacingTop=-1;spacingLeft=3;spacingRight=3;rotatable=0;labelPosition=right;points=[];portConstraint=eastwest;strokeColor=inherit;" vertex="1" parent="mCZfHpHMkRfQ4yyxiXEU-12">
          <mxGeometry y="52" width="160" height="8" as="geometry" />
        </mxCell>
        <mxCell id="mCZfHpHMkRfQ4yyxiXEU-15" value="+ Jewelry (name: String,&lt;div&gt;&lt;span style=&quot;white-space: pre;&quot;&gt;&#x9;&lt;/span&gt;&lt;span style=&quot;white-space: pre;&quot;&gt;&#x9;&lt;/span&gt;karat: double)&lt;br&gt;&lt;/div&gt;&lt;div&gt;&lt;br&gt;&lt;/div&gt;&lt;div&gt;// override&lt;/div&gt;&lt;div&gt;+ getValue(): double&lt;/div&gt;" style="text;strokeColor=none;fillColor=none;align=left;verticalAlign=top;spacingLeft=4;spacingRight=4;overflow=hidden;rotatable=0;points=[[0,0.5],[1,0.5]];portConstraint=eastwest;whiteSpace=wrap;html=1;" vertex="1" parent="mCZfHpHMkRfQ4yyxiXEU-12">
          <mxGeometry y="60" width="160" height="90" as="geometry" />
        </mxCell>
        <mxCell id="mCZfHpHMkRfQ4yyxiXEU-18" value="Extends" style="endArrow=block;endSize=16;endFill=0;html=1;rounded=0;exitX=0.669;exitY=-0.02;exitDx=0;exitDy=0;exitPerimeter=0;entryX=0.209;entryY=1.028;entryDx=0;entryDy=0;entryPerimeter=0;" edge="1" parent="1" source="mCZfHpHMkRfQ4yyxiXEU-12" target="mCZfHpHMkRfQ4yyxiXEU-8">
          <mxGeometry width="160" relative="1" as="geometry">
            <mxPoint x="360" y="530" as="sourcePoint" />
            <mxPoint x="520" y="530" as="targetPoint" />
          </mxGeometry>
        </mxCell>
        <mxCell id="mCZfHpHMkRfQ4yyxiXEU-19" value="Gold" style="swimlane;fontStyle=1;align=center;verticalAlign=top;childLayout=stackLayout;horizontal=1;startSize=26;horizontalStack=0;resizeParent=1;resizeParentMax=0;resizeLast=0;collapsible=1;marginBottom=0;whiteSpace=wrap;html=1;" vertex="1" parent="1">
          <mxGeometry x="410" y="590" width="160" height="150" as="geometry" />
        </mxCell>
        <mxCell id="mCZfHpHMkRfQ4yyxiXEU-20" value="- weight: double" style="text;strokeColor=none;fillColor=none;align=left;verticalAlign=top;spacingLeft=4;spacingRight=4;overflow=hidden;rotatable=0;points=[[0,0.5],[1,0.5]];portConstraint=eastwest;whiteSpace=wrap;html=1;" vertex="1" parent="mCZfHpHMkRfQ4yyxiXEU-19">
          <mxGeometry y="26" width="160" height="26" as="geometry" />
        </mxCell>
        <mxCell id="mCZfHpHMkRfQ4yyxiXEU-21" value="" style="line;strokeWidth=1;fillColor=none;align=left;verticalAlign=middle;spacingTop=-1;spacingLeft=3;spacingRight=3;rotatable=0;labelPosition=right;points=[];portConstraint=eastwest;strokeColor=inherit;" vertex="1" parent="mCZfHpHMkRfQ4yyxiXEU-19">
          <mxGeometry y="52" width="160" height="8" as="geometry" />
        </mxCell>
        <mxCell id="mCZfHpHMkRfQ4yyxiXEU-22" value="+ Jewelry (name: String,&lt;div&gt;&lt;span style=&quot;white-space: pre;&quot;&gt;&#x9;&lt;/span&gt;&lt;span style=&quot;white-space: pre;&quot;&gt;&#x9;&lt;/span&gt;karat: double)&lt;br&gt;&lt;/div&gt;&lt;div&gt;&lt;br&gt;&lt;/div&gt;&lt;div&gt;// override&lt;/div&gt;&lt;div&gt;+ getValue(): double&lt;/div&gt;" style="text;strokeColor=none;fillColor=none;align=left;verticalAlign=top;spacingLeft=4;spacingRight=4;overflow=hidden;rotatable=0;points=[[0,0.5],[1,0.5]];portConstraint=eastwest;whiteSpace=wrap;html=1;" vertex="1" parent="mCZfHpHMkRfQ4yyxiXEU-19">
          <mxGeometry y="60" width="160" height="90" as="geometry" />
        </mxCell>
        <mxCell id="mCZfHpHMkRfQ4yyxiXEU-23" value="House" style="swimlane;fontStyle=1;align=center;verticalAlign=top;childLayout=stackLayout;horizontal=1;startSize=26;horizontalStack=0;resizeParent=1;resizeParentMax=0;resizeLast=0;collapsible=1;marginBottom=0;whiteSpace=wrap;html=1;" vertex="1" parent="1">
          <mxGeometry x="610" y="570" width="160" height="200" as="geometry" />
        </mxCell>
        <mxCell id="mCZfHpHMkRfQ4yyxiXEU-24" value="- yearBuild: int&lt;div&gt;-squareFeetL int&lt;/div&gt;&lt;div&gt;- bedrooms: int&lt;/div&gt;" style="text;strokeColor=none;fillColor=none;align=left;verticalAlign=top;spacingLeft=4;spacingRight=4;overflow=hidden;rotatable=0;points=[[0,0.5],[1,0.5]];portConstraint=eastwest;whiteSpace=wrap;html=1;" vertex="1" parent="mCZfHpHMkRfQ4yyxiXEU-23">
          <mxGeometry y="26" width="160" height="54" as="geometry" />
        </mxCell>
        <mxCell id="mCZfHpHMkRfQ4yyxiXEU-25" value="" style="line;strokeWidth=1;fillColor=none;align=left;verticalAlign=middle;spacingTop=-1;spacingLeft=3;spacingRight=3;rotatable=0;labelPosition=right;points=[];portConstraint=eastwest;strokeColor=inherit;" vertex="1" parent="mCZfHpHMkRfQ4yyxiXEU-23">
          <mxGeometry y="80" width="160" height="8" as="geometry" />
        </mxCell>
        <mxCell id="mCZfHpHMkRfQ4yyxiXEU-26" value="+ House (year: int, &lt;span style=&quot;white-space: pre;&quot;&gt;&#x9;&lt;/span&gt;squareFeet: int;&amp;nbsp;&lt;div&gt;&lt;span style=&quot;white-space: pre;&quot;&gt;&#x9;&lt;/span&gt;bedrooms: int)&lt;/div&gt;&lt;div&gt;&lt;br&gt;&lt;/div&gt;&lt;div&gt;// override&lt;/div&gt;&lt;div&gt;+ getValue(): double&lt;/div&gt;" style="text;strokeColor=none;fillColor=none;align=left;verticalAlign=top;spacingLeft=4;spacingRight=4;overflow=hidden;rotatable=0;points=[[0,0.5],[1,0.5]];portConstraint=eastwest;whiteSpace=wrap;html=1;" vertex="1" parent="mCZfHpHMkRfQ4yyxiXEU-23">
          <mxGeometry y="88" width="160" height="112" as="geometry" />
        </mxCell>
        <mxCell id="mCZfHpHMkRfQ4yyxiXEU-27" value="Extends" style="endArrow=block;endSize=16;endFill=0;html=1;rounded=0;exitX=0.575;exitY=-0.013;exitDx=0;exitDy=0;exitPerimeter=0;entryX=0.45;entryY=1.042;entryDx=0;entryDy=0;entryPerimeter=0;" edge="1" parent="1" source="mCZfHpHMkRfQ4yyxiXEU-19" target="mCZfHpHMkRfQ4yyxiXEU-8">
          <mxGeometry width="160" relative="1" as="geometry">
            <mxPoint x="490" y="580" as="sourcePoint" />
            <mxPoint x="650" y="580" as="targetPoint" />
          </mxGeometry>
        </mxCell>
        <mxCell id="mCZfHpHMkRfQ4yyxiXEU-28" value="Extends" style="endArrow=block;endSize=16;endFill=0;html=1;rounded=0;entryX=0.745;entryY=1.014;entryDx=0;entryDy=0;entryPerimeter=0;exitX=0.388;exitY=-0.013;exitDx=0;exitDy=0;exitPerimeter=0;" edge="1" parent="1" source="mCZfHpHMkRfQ4yyxiXEU-23" target="mCZfHpHMkRfQ4yyxiXEU-8">
          <mxGeometry width="160" relative="1" as="geometry">
            <mxPoint x="570" y="590" as="sourcePoint" />
            <mxPoint x="730" y="590" as="targetPoint" />
          </mxGeometry>
        </mxCell>
        <mxCell id="mCZfHpHMkRfQ4yyxiXEU-29" value="BankAccount" style="swimlane;fontStyle=1;align=center;verticalAlign=top;childLayout=stackLayout;horizontal=1;startSize=26;horizontalStack=0;resizeParent=1;resizeParentMax=0;resizeLast=0;collapsible=1;marginBottom=0;whiteSpace=wrap;html=1;" vertex="1" parent="1">
          <mxGeometry x="380" y="138" width="160" height="150" as="geometry" />
        </mxCell>
        <mxCell id="mCZfHpHMkRfQ4yyxiXEU-30" value="- balance: double" style="text;strokeColor=none;fillColor=none;align=left;verticalAlign=top;spacingLeft=4;spacingRight=4;overflow=hidden;rotatable=0;points=[[0,0.5],[1,0.5]];portConstraint=eastwest;whiteSpace=wrap;html=1;" vertex="1" parent="mCZfHpHMkRfQ4yyxiXEU-29">
          <mxGeometry y="26" width="160" height="44" as="geometry" />
        </mxCell>
        <mxCell id="mCZfHpHMkRfQ4yyxiXEU-31" value="" style="line;strokeWidth=1;fillColor=none;align=left;verticalAlign=middle;spacingTop=-1;spacingLeft=3;spacingRight=3;rotatable=0;labelPosition=right;points=[];portConstraint=eastwest;strokeColor=inherit;" vertex="1" parent="mCZfHpHMkRfQ4yyxiXEU-29">
          <mxGeometry y="70" width="160" height="10" as="geometry" />
        </mxCell>
        <mxCell id="mCZfHpHMkRfQ4yyxiXEU-32" value="+ withdraw(amount: double)&lt;div&gt;+ deposit(amount, double)&lt;/div&gt;&lt;div&gt;+ getValue()&lt;/div&gt;" style="text;strokeColor=none;fillColor=none;align=left;verticalAlign=top;spacingLeft=4;spacingRight=4;overflow=hidden;rotatable=0;points=[[0,0.5],[1,0.5]];portConstraint=eastwest;whiteSpace=wrap;html=1;" vertex="1" parent="mCZfHpHMkRfQ4yyxiXEU-29">
          <mxGeometry y="80" width="160" height="70" as="geometry" />
        </mxCell>
        <mxCell id="mCZfHpHMkRfQ4yyxiXEU-33" value="CreditCard" style="swimlane;fontStyle=1;align=center;verticalAlign=top;childLayout=stackLayout;horizontal=1;startSize=26;horizontalStack=0;resizeParent=1;resizeParentMax=0;resizeLast=0;collapsible=1;marginBottom=0;whiteSpace=wrap;html=1;" vertex="1" parent="1">
          <mxGeometry x="660" y="130" width="160" height="158" as="geometry" />
        </mxCell>
        <mxCell id="mCZfHpHMkRfQ4yyxiXEU-34" value="- limit: double&lt;div&gt;- balance: double&lt;/div&gt;" style="text;strokeColor=none;fillColor=none;align=left;verticalAlign=top;spacingLeft=4;spacingRight=4;overflow=hidden;rotatable=0;points=[[0,0.5],[1,0.5]];portConstraint=eastwest;whiteSpace=wrap;html=1;" vertex="1" parent="mCZfHpHMkRfQ4yyxiXEU-33">
          <mxGeometry y="26" width="160" height="44" as="geometry" />
        </mxCell>
        <mxCell id="mCZfHpHMkRfQ4yyxiXEU-35" value="" style="line;strokeWidth=1;fillColor=none;align=left;verticalAlign=middle;spacingTop=-1;spacingLeft=3;spacingRight=3;rotatable=0;labelPosition=right;points=[];portConstraint=eastwest;strokeColor=inherit;" vertex="1" parent="mCZfHpHMkRfQ4yyxiXEU-33">
          <mxGeometry y="70" width="160" height="8" as="geometry" />
        </mxCell>
        <mxCell id="mCZfHpHMkRfQ4yyxiXEU-36" value="+makePayment(BankAccount, amount)&lt;div&gt;+ charge(amount)&amp;nbsp;&lt;br&gt;&lt;div&gt;+ getValue()&lt;/div&gt;&lt;/div&gt;" style="text;strokeColor=none;fillColor=none;align=left;verticalAlign=top;spacingLeft=4;spacingRight=4;overflow=hidden;rotatable=0;points=[[0,0.5],[1,0.5]];portConstraint=eastwest;whiteSpace=wrap;html=1;" vertex="1" parent="mCZfHpHMkRfQ4yyxiXEU-33">
          <mxGeometry y="78" width="160" height="80" as="geometry" />
        </mxCell>
        <mxCell id="mCZfHpHMkRfQ4yyxiXEU-37" value="«interface»&lt;br&gt;&lt;b&gt;IValuable&lt;/b&gt;&lt;div&gt;&lt;b&gt;&lt;br&gt;&lt;/b&gt;&lt;/div&gt;&lt;div&gt;&lt;b&gt;getValue()&lt;/b&gt;&lt;/div&gt;" style="html=1;whiteSpace=wrap;" vertex="1" parent="1">
          <mxGeometry x="560" y="30" width="120" height="70" as="geometry" />
        </mxCell>
        <mxCell id="mCZfHpHMkRfQ4yyxiXEU-43" value="Extends" style="endArrow=block;endSize=16;endFill=0;html=1;rounded=0;exitX=0.5;exitY=0;exitDx=0;exitDy=0;entryX=0.25;entryY=1;entryDx=0;entryDy=0;" edge="1" parent="1" source="mCZfHpHMkRfQ4yyxiXEU-29" target="mCZfHpHMkRfQ4yyxiXEU-37">
          <mxGeometry x="0.1467" y="-2" width="160" relative="1" as="geometry">
            <mxPoint x="400" y="300" as="sourcePoint" />
            <mxPoint x="550" y="260" as="targetPoint" />
            <mxPoint as="offset" />
          </mxGeometry>
        </mxCell>
        <mxCell id="mCZfHpHMkRfQ4yyxiXEU-44" value="" style="endArrow=diamondThin;endFill=0;endSize=24;html=1;rounded=0;exitX=1.009;exitY=0.703;exitDx=0;exitDy=0;exitPerimeter=0;entryX=0.025;entryY=0.614;entryDx=0;entryDy=0;entryPerimeter=0;" edge="1" parent="1" source="mCZfHpHMkRfQ4yyxiXEU-2" target="mCZfHpHMkRfQ4yyxiXEU-37">
          <mxGeometry width="160" relative="1" as="geometry">
            <mxPoint x="390" y="260" as="sourcePoint" />
            <mxPoint x="310" y="350" as="targetPoint" />
          </mxGeometry>
        </mxCell>
        <mxCell id="mCZfHpHMkRfQ4yyxiXEU-45" value="Extends" style="endArrow=block;endSize=16;endFill=0;html=1;rounded=0;exitX=0.344;exitY=-0.012;exitDx=0;exitDy=0;entryX=0.75;entryY=1;entryDx=0;entryDy=0;exitPerimeter=0;" edge="1" parent="1" source="mCZfHpHMkRfQ4yyxiXEU-33" target="mCZfHpHMkRfQ4yyxiXEU-37">
          <mxGeometry x="0.1467" y="-2" width="160" relative="1" as="geometry">
            <mxPoint x="380" y="188" as="sourcePoint" />
            <mxPoint x="448" y="150" as="targetPoint" />
            <mxPoint as="offset" />
          </mxGeometry>
        </mxCell>
        <mxCell id="mCZfHpHMkRfQ4yyxiXEU-46" value="Extends" style="endArrow=block;endSize=16;endFill=0;html=1;rounded=0;exitX=0.568;exitY=-0.012;exitDx=0;exitDy=0;entryX=0.5;entryY=1;entryDx=0;entryDy=0;exitPerimeter=0;" edge="1" parent="1" source="mCZfHpHMkRfQ4yyxiXEU-5" target="mCZfHpHMkRfQ4yyxiXEU-37">
          <mxGeometry x="0.1467" y="-2" width="160" relative="1" as="geometry">
            <mxPoint x="540" y="228" as="sourcePoint" />
            <mxPoint x="633" y="150" as="targetPoint" />
            <mxPoint as="offset" />
          </mxGeometry>
        </mxCell>
      </root>
    </mxGraphModel>
  </diagram>
</mxfile>
